<svg xmlns="http://www.w3.org/2000/svg" version="1.1" xmlns:xlink="http://www.w3.org/1999/xlink" xmlns:svgjs="http://svgjs.com/svgjs" width="1440" height="2960" preserveAspectRatio="none" viewBox="0 0 1440 2960"><g mask="url(&quot;#SvgjsMask1025&quot;)" fill="none"><rect width="1440" height="2960" x="0" y="0" fill="rgba(0, 0, 0, 1)"></rect><path d="M831.92 3428.92C983.5 3039.87 674.24 2341.23 1088.25 1778.58 1502.26 1215.93 1365.45 910.11 1600.91 742.58" stroke="rgba(95, 188, 4, 1)" stroke-width="2"></path><path d="M162.36 3327.06C477.15 3100.69 253.73 2276.95 845.71 1934.79 1437.7 1592.63 1255.73 1076.74 1529.07 957.99" stroke="rgba(95, 188, 4, 1)" stroke-width="2"></path><path d="M778.89 3261.16C1025.67 2779.23 919.07 1200.56 1210.08 1138.75 1501.08 1076.94 1416.94 2181.7 1641.26 2441.15" stroke="rgba(95, 188, 4, 1)" stroke-width="2"></path><path d="M479.21 3503.65C800.56 2889.21 549.3 1083.7 1042.35 787.83 1535.4 491.96 1391.92 1422.41 1605.49 1498.23" stroke="rgba(95, 188, 4, 1)" stroke-width="2"></path><path d="M256.26 2990.73C501.51 2577.65 316.66 1334.45 694.44 1119.77 1072.22 905.09 913.53 1489.77 1132.62 1489.77 1351.71 1489.77 1429.38 1143.38 1570.8 1119.77" stroke="rgba(95, 188, 4, 1)" stroke-width="2"></path></g><defs><mask id="SvgjsMask1025"><rect width="1440" height="2960" fill="#ffffff"></rect></mask></defs></svg>